<?xml version="1.0" encoding="iso-8859-1"?>
<!-- Generator: Adobe Illustrator 17.1.0, SVG Export Plug-In . SVG Version: 6.00 Build 0)  -->
<!DOCTYPE svg PUBLIC "-//W3C//DTD SVG 1.1//EN" "http://www.w3.org/Graphics/SVG/1.1/DTD/svg11.dtd">
<svg version="1.1" id="Capa_1" xmlns="http://www.w3.org/2000/svg" xmlns:xlink="http://www.w3.org/1999/xlink" x="0px" y="0px"
	 viewBox="0 0 200.223 200.223" style="enable-background:new 0 0 200.223 200.223;" xml:space="preserve">
<path d="M51.453,141.914h97.319v27.805H51.453V141.914z M178.008,21.672l-11.074,45.627c4.292,9.313,6.714,19.658,6.733,30.559
	l0.146,84.213c0.008,4.788-1.849,9.294-5.228,12.686c-3.381,3.392-7.88,5.265-12.668,5.273l-111.4,0.193c-0.003,0-0.028,0-0.031,0
	c-9.867,0-17.91-8.029-17.928-17.896l-0.145-84.213c-0.019-10.928,2.335-21.492,6.805-31.117L22.216,21.672
	c-0.572-2.358,0.516-4.807,2.65-5.963l18.401-9.969c1.459-0.791,3.202-0.858,4.718-0.185c1.516,0.674,2.634,2.013,3.026,3.626
	l6.899,28.424c3.285-2.302,6.74-4.311,10.325-6.034v-3.766C68.234,12.473,80.707,0,96.039,0h8.146
	c15.332,0,27.805,12.473,27.805,27.805v3.891c3.599,1.746,7.043,3.766,10.289,6.05l6.933-28.565
	c0.392-1.613,1.509-2.952,3.026-3.626c1.516-0.674,3.258-0.606,4.718,0.185l18.401,9.969
	C177.492,16.866,178.58,19.314,178.008,21.672z M78.947,27.432c6.717-2.004,13.758-3.061,20.965-3.073h0.131
	c7.383,0,14.51,1.11,21.239,3.149c-0.161-9.297-7.762-16.813-17.096-16.813h-8.146C86.73,10.694,79.148,18.17,78.947,27.432z
	 M159.466,136.567c0-2.953-2.394-5.347-5.347-5.347H46.106c-2.953,0-5.347,2.394-5.347,5.347v38.5c0,2.953,2.394,5.347,5.347,5.347
	h108.013c2.953,0,5.347-2.394,5.347-5.347V136.567z M159.466,100.566c0-32.728-26.626-59.354-59.354-59.354
	s-59.354,26.626-59.354,59.354c0,2.953,2.394,5.347,5.347,5.347s5.347-2.394,5.347-5.347c0-26.831,21.828-48.659,48.659-48.659
	s48.659,21.828,48.659,48.659c0,2.953,2.394,5.347,5.347,5.347S159.466,103.519,159.466,100.566z"/>
<g>
</g>
<g>
</g>
<g>
</g>
<g>
</g>
<g>
</g>
<g>
</g>
<g>
</g>
<g>
</g>
<g>
</g>
<g>
</g>
<g>
</g>
<g>
</g>
<g>
</g>
<g>
</g>
<g>
</g>
</svg>
